<svg width="29" height="20" viewBox="0 0 29 20" fill="none" xmlns="http://www.w3.org/2000/svg">
<path d="M28.039 4.67611L12.5698 19.5695C12.4333 19.706 12.2714 19.8143 12.0931 19.8881C11.9148 19.962 11.7237 20 11.5308 20C11.3378 20 11.1467 19.962 10.9684 19.8881C10.7901 19.8143 10.6282 19.706 10.4917 19.5695L0.429429 9.38666C0.154382 9.11118 -0.000102997 8.73782 -0.000102997 8.34855C-0.000102997 7.95927 0.154382 7.5859 0.429429 7.31043L2.63329 5.10657C2.90788 4.83191 3.28006 4.67714 3.66843 4.67611C4.05681 4.67508 4.4298 4.82786 4.70584 5.10106L11.556 11.9111L11.5661 11.9212L23.7589 0.428159C24.0342 0.153952 24.407 0 24.7956 0C25.1842 0 25.557 0.153952 25.8324 0.428159L28.0362 2.59162C28.1738 2.72799 28.2831 2.89023 28.3578 3.069C28.4324 3.24778 28.471 3.43955 28.4713 3.63329C28.4715 3.82703 28.4335 4.0189 28.3593 4.19787C28.2851 4.37684 28.1762 4.53937 28.039 4.67611Z" fill="white"/>
</svg>
